<?xml version="1.0" encoding="UTF-8" standalone="no"?>
<!-- Created with Inkscape (http://www.inkscape.org/) -->

<svg
   width="6.3499985mm"
   height="6.3500061mm"
   viewBox="0 0 6.3499985 6.3500061"
   version="1.1"
   id="svg5"
   xml:space="preserve"
   xmlns="http://www.w3.org/2000/svg"
   xmlns:svg="http://www.w3.org/2000/svg"><defs
     id="defs2" /><g
     id="layer1"
     transform="translate(124.74447,188.9358)"><g
       id="g30727"
       transform="translate(50.932292,-18.388542)"><g
         id="g30561"
         transform="matrix(1.0590211,0,0,1.0590211,-5.4592141,-17.817605)"
         style="stroke:#bdbdbd;stroke-opacity:1"><g
           id="g30557"
           style="stroke:#bdbdbd;stroke-opacity:1"><path
             style="fill:none;fill-opacity:1;stroke:#bdbdbd;stroke-width:0.468175;stroke-linecap:round;stroke-linejoin:round;stroke-dasharray:none;stroke-opacity:1;paint-order:markers fill stroke"
             d="m -158.37085,-140.03585 v 0.74922 c 0.0258,0.16 0.12291,0.20814 0.32636,0.209 0.7748,0.004 0.32041,-0.003 0.31677,-0.004 0,0 -0.52106,0.0115 0.42002,-0.003 0.11887,-0.003 0.22237,-0.0393 0.24774,-0.22383 v -0.75501"
             id="path30545" /><path
             style="fill:none;fill-opacity:1;stroke:#bdbdbd;stroke-width:0.475928;stroke-linecap:round;stroke-linejoin:round;stroke-dasharray:none;stroke-opacity:1;paint-order:markers fill stroke"
             d="m -159.07476,-141.17173 -0.67449,0.38943 c -0.13125,0.10535 -0.12631,0.214 -0.0259,0.3896 0.38164,0.66902 0.16182,0.27434 0.16095,0.27069 0,0 -0.26045,-0.4279 0.18766,0.32096 0.008,0.0127 0.0152,0.0259 0.0236,0.0393 0.0608,0.10136 0.14593,0.17098 0.32465,0.0969 l 0.6797,-0.39244"
             id="path30547" /><path
             style="fill:none;fill-opacity:1;stroke:#bdbdbd;stroke-width:0.475985;stroke-linecap:round;stroke-linejoin:round;stroke-dasharray:none;stroke-opacity:1;paint-order:markers fill stroke"
             d="m -157.09041,-142.36178 v -0.77884 c -0.0256,-0.16635 -0.12251,-0.2162 -0.32443,-0.21727 -0.77021,-0.004 -0.31852,0.003 -0.31491,0.004 0,0 0.50079,-0.0116 -0.37177,0.002 -0.0151,-5.3e-4 -0.0302,-2.5e-4 -0.0458,8.3e-4 -0.11821,0.002 -0.22104,0.0409 -0.24627,0.23271 l 1e-5,0.78485"
             id="path30549" /><path
             style="fill:none;fill-opacity:1;stroke:#bdbdbd;stroke-width:0.475928;stroke-linecap:round;stroke-linejoin:round;stroke-dasharray:none;stroke-opacity:1;paint-order:markers fill stroke"
             d="m -156.40719,-141.21919 0.67449,-0.38942 c 0.13125,-0.10536 0.12631,-0.214 0.0259,-0.3896 -0.38164,-0.66902 -0.16182,-0.27435 -0.16094,-0.2707 0,0 0.26044,0.4279 -0.18767,-0.32096 -0.008,-0.0127 -0.0152,-0.0259 -0.0236,-0.0393 -0.0608,-0.10137 -0.14593,-0.17099 -0.32464,-0.0969 l -0.67971,0.39243"
             id="path30551" /><path
             style="fill:none;fill-opacity:1;stroke:#bdbdbd;stroke-width:0.475928;stroke-linecap:round;stroke-linejoin:round;stroke-dasharray:none;stroke-opacity:1;paint-order:markers fill stroke"
             d="m -157.04347,-140.06491 0.67449,0.38942 c 0.15686,0.061 0.24848,0.002 0.35036,-0.17236 0.38857,-0.66502 0.15668,-0.27732 0.15396,-0.27473 0,0 -0.24035,0.4395 0.18412,-0.32301 0.007,-0.0133 0.0148,-0.0261 0.0222,-0.0401 0.0574,-0.10338 0.0751,-0.21188 -0.078,-0.32971 l -0.6797,-0.39243"
             id="path30553" /><path
             style="fill:none;fill-opacity:1;stroke:#bdbdbd;stroke-width:0.475928;stroke-linecap:round;stroke-linejoin:round;stroke-dasharray:none;stroke-opacity:1;paint-order:markers fill stroke"
             d="m -158.4022,-142.34151 -0.6745,-0.38942 c -0.15686,-0.061 -0.24849,-0.002 -0.35037,0.17233 -0.38857,0.66502 -0.15667,0.27735 -0.15399,0.27472 0,0 0.24034,-0.43949 -0.18416,0.32296 -0.008,0.0128 -0.0153,0.026 -0.0222,0.0401 -0.0574,0.10338 -0.0751,0.21188 0.0784,0.32963 l 0.6797,0.39242"
             id="path30555" /></g><circle
           style="fill:#000000;fill-opacity:0;stroke:#bdbdbd;stroke-width:0.425708;stroke-linecap:round;stroke-linejoin:round;stroke-dasharray:none;stroke-opacity:1;paint-order:markers fill stroke"
           id="circle30559"
           cx="-157.73299"
           cy="-141.21971"
           r="0.5846886" /></g><rect
         style="fill:none;stroke:none;stroke-width:0.254;stroke-opacity:1"
         id="rect30563"
         width="6.3499999"
         height="6.3499999"
         x="-175.67676"
         y="-170.54726" /></g></g></svg>
