<?xml version="1.0" encoding="UTF-8" standalone="no"?>
<!-- Created with Inkscape (http://www.inkscape.org/) -->

<svg
   width="6.1057739mm"
   height="6.1057739mm"
   viewBox="0 0 6.1057739 6.1057739"
   version="1.1"
   id="svg5"
   xml:space="preserve"
   xmlns="http://www.w3.org/2000/svg"
   xmlns:svg="http://www.w3.org/2000/svg"><defs
     id="defs2" /><g
     id="layer3"
     transform="translate(73.444376,170.38272)"><g
       id="g10652"
       transform="translate(51.812261,-12.521755)"><rect
         style="fill:none;stroke:none;stroke-width:0.24423;stroke-opacity:1"
         id="rect10640"
         width="6.1057696"
         height="6.1057692"
         x="-125.25664"
         y="-157.86096" /><g
         id="g10650"
         transform="matrix(0.82599129,0,0,0.82599129,-27.726098,-31.089859)"><path
           style="fill:none;fill-opacity:1;stroke:#000000;stroke-width:0.529167;stroke-linecap:square;stroke-linejoin:miter;stroke-dasharray:none;stroke-opacity:1;paint-order:stroke markers fill"
           d="m -116.07298,-149.93896 c 3.3841,0 3.3841,0 3.3841,0"
           id="path10642" /><rect
           style="fill:#1a6d66;fill-opacity:1;stroke:#1a6d66;stroke-width:0.671702;stroke-linecap:round;stroke-linejoin:round;stroke-dasharray:none;stroke-opacity:1;paint-order:markers fill stroke"
           id="rect10644"
           width="0.38628742"
           height="0.36290133"
           x="-114.57408"
           y="-149.49944"
           ry="0.18145066" /><path
           style="fill:none;fill-opacity:1;stroke:#1a6d66;stroke-width:0.529167;stroke-linecap:round;stroke-linejoin:round;stroke-dasharray:none;stroke-opacity:1;paint-order:markers stroke fill"
           d="m -113.05447,-151.27252 v -0.73273 c -0.0518,-0.15649 -0.24876,-0.20357 -0.66049,-0.2044 -1.56806,-0.003 -0.0718,-0.005 -0.0644,-0.003 0,0 0.47791,-0.005 -1.42668,0.009 -0.24056,0.002 -0.44999,0.0387 -0.50135,0.21891 v 0.73839"
           id="path10646" /><rect
           style="fill:none;fill-opacity:1;stroke:#000000;stroke-width:0.499663;stroke-linecap:round;stroke-linejoin:round;stroke-dasharray:none;stroke-opacity:1"
           id="rect10648"
           width="4.3055453"
           height="3.8202848"
           x="-116.53371"
           y="-151.15501"
           ry="0.60981309" /></g></g></g></svg>
